<?xml version="1.0" encoding="UTF-8"?>
<svg width="752pt" height="752pt" version="1.1" viewBox="0 0 752 752" xmlns="http://www.w3.org/2000/svg">
 <path d="m308.38 524.14c-2.3281-0.3125-4.1289-2.3242-4.2305-4.8398-0.097657-2.5156 1.5391-4.7266 3.8438-5.1953l53.223-10.867c18.012-3.9492 29.062-18.613 26.82-35.645-1.5781-11.969-11.969-20.984-25.863-22.441-1.6016-0.16406-3.0117-1.1953-3.7461-2.7227-0.73438-1.5352-0.69531-3.3594 0.097657-4.8555 3.5508-6.6445 4.6133-14.777 3.0586-23.512-1.2773-7.1875-4.2461-13.219-8.8398-17.91-1.8867-1.9258-1.9688-5.1211-0.18359-7.1562 4.7773-5.4492 6.6094-12.809 5.9609-23.848-0.3125-5.2812-2.4375-10.215-6.3086-14.66-1.0117-1.1641-1.457-2.7734-1.1992-4.3477 0.26172-1.5742 1.1875-2.9219 2.5156-3.6484 4.5938-2.5 8.1797-6.0938 10.66-10.688 0.89844-1.668 2.5469-2.6328 4.4141-2.5195 1.793 0.12891 3.3711 1.3398 4.0586 3.1211 9.707 25.086 27.805 32.754 59.691 35.73 9.5742 0.89453 9.3008-2.6094 8.4688-2.7812-66.887-13.887-69.176-66.695-69.785-67.234-0.60547-0.53516-1.4336-0.71094-2.1914-0.46875-12.953 4.2109-31.57 6.3828-31.75 6.4023-0.30859 0.03125-0.61719 0.14844-0.89453 0.32031-0.046875 0.66797-0.09375 1.5312-0.15625 2.5586-1.0547 16.953-4.2617 68.559-37.684 80.289-1.2852 0.45312-2.6797 0.29688-3.8594-0.44141-1.1641-0.73047-1.9883-1.9609-2.2578-3.3828-3.6758-19.559-20.203-116.35-17.844-119.66 0.98437-1.3867 131.6-36.91 138.06-36.91 0.83203 0 1.5117 0.0625 2.125 0.24219 13.312 3.8984 97.078 68.707 97.57 69.004 5.3711 3.293 51.887 8.5859 54.297 10.34 7.0195 5.1055 9.4688 11.301 10.191 13.73 0.14844 0.50391 0.22656 1.0273 0.22656 1.5547l0.003906 145.12c-0.26562 7.0781-13.441 17.305-20.16 17.305-12.84 0-161.77 51.715-248.34 40.016zm-46.117-6.4961c-10.301 0-23.188-4.8086-25.598-18.359-2.7734-15.547 9.7812-25.535 23.457-28.535l91.031-19.965c2.3633-0.51953 4.7891-0.78516 7.1992-0.78516 13.094 0 23.602 7.6992 24.996 18.305 1.875 14.246-7.5977 26.562-23.043 29.945l-91.477 18.688c-1.8906 0.44922-4.2148 0.70703-6.5664 0.70703zm-42.59-44.02c-13.535 0-25.156-7.707-27.48-25.023-2.0742-15.469 7.0039-26.617 24.238-32.031 0 0 111.58-24.188 114.22-24.188 14.156 0 23.742 8.2461 26.285 22.621 3.1367 17.68-5.7148 30.582-23.68 34.52l-106.11 23.273c-2.4961 0.54688-5.0156 0.82812-7.4805 0.82812zm-15.336-67.816c-11.402 0-28.594-6.3359-29.199-23.793-0.64062-18.133 8.5156-28.207 27.191-29.934l74.242-4.8086c2.3477-0.19922 4.4805 1.5977 4.9336 4.1016 3.5156 19.441 6.3398 34.395 7.2031 38.965 0.51953 2.7461-1.1289 5.4258-3.6875 5.9844l-22.773 4.9961c-0.19922 0.042969-55.5 4.375-55.5 4.375-0.70312 0.074219-1.5312 0.11328-2.4102 0.11328zm138.96-16.434c-0.49219 0-0.98047-0.082032-1.457-0.24609-3.4922-1.2109-7.25-1.8242-11.176-1.8242-1.5195 0-3.1953 0.11719-5.1289 0.36328-1.9883 0.24219-3.9688-0.89844-4.8359-2.8711-0.875-1.9688-0.47266-4.3203 0.98828-5.8281 2.1211-2.1992 3.8633-4.2812 5.332-6.375 4.0156-5.7305 7.1992-12.652 9.4688-20.578 0.44531-1.5547 1.5547-2.7812 2.9844-3.3086 1.4336-0.53125 3.0117-0.29297 4.2461 0.63281 6.332 4.7266 9.7266 10.152 10.082 16.121 0.69141 11.77-1.4805 18.211-7.7695 22.984-0.8125 0.61328-1.7695 0.92969-2.7344 0.92969zm-69.16-47.695c-0.019531 0.003907-0.058593 0.003907-0.09375 0h-53.496c-14.336 0-29.656-7.0703-29.656-26.914 0-17.668 14.918-26.914 29.656-26.914h46.043c2.2969 0 4.2656 1.7695 4.6641 4.1992 2.3438 14.34 4.875 29.051 7.2734 42.629 0.22656 0.59375 0.34766 1.2422 0.34766 1.918 0 2.8086-2.1172 5.082-4.7383 5.082zm70.375-1.3438c-1.1328 0-2.2461-0.4375-3.1172-1.2539-1.168-1.0977-1.7656-2.7461-1.5859-4.4062 0.93359-8.6836 0.82031-16.309 0.55859-21.18-0.14062-2.6367 1.625-4.9492 4.0586-5.3164 3.0859-0.46875 7.8516-1.2539 12.984-2.3398 2.4844-0.53516 4.9219 1.1406 5.5156 3.7773 0.36328 1.6016 0.55078 3.0703 0.55859 4.3555 0.097656 13.535-6.3945 23.086-17.812 26.203-0.37891 0.10547-0.76953 0.16016-1.1602 0.16016z"/>
</svg>
