<?xml version="1.0" encoding="UTF-8"?>
<svg width="752pt" height="752pt" version="1.1" viewBox="0 0 752 752" xmlns="http://www.w3.org/2000/svg">
 <path d="m282.38 590.25h-0.12891c-0.097656 0-9.7812-0.375-13.316-4.3086-1.2227-1.6133-14.168-64.051-18.09-71.5-2.1211-4.0391-26.277-88.203-35.055-132.44-5.0781-25.555-7.8789-90.195 4.4805-90.195 4.9336 0 3.168 27.961 3.207 37.344 0.19922 46.715 12.137 52.984 32.316 52.699 13.723-0.19531 25.934-9.8945 30.375-24.617 0 0 0.875-4.6406 2.6719-5.1445 1.793-0.50391 5.0234 2.9883 5.0234 2.9883 6.8242 6.125 15.371 9.5 24.07 9.5 14.008 0 26.633-8.0117 32.961-20.914 0 0 1.7773-3.3086 3.4766-3.5625 1.6992-0.25 4.2383 2.4141 4.2383 2.4141 6.9531 7.4492 15.996 11.902 24.199 11.902 9.5703 0 17.547-3.1133 23.699-9.2461 0 0 2.5039-2.1914 4.1758-1.8906 1.6719 0.30469 3.6523 10.188 13.023 17.289 9.6641 7.3281 19.461 4.4531 19.461 6.0898 0 1.1094-10.836 5.1758-10.836 5.1758-43.75 20.602-57.32 64.672-57.062 65.113 0.44531 0.75 1.6211 2.3164 2.1328 1.5117 16.902-26.488 44.133-60.43 84.746-66.805 1.8711-0.29297 3.707-1.5234 3.7383-2.957 0.007813-0.33203-8.4375-38.578-8.4375-38.578-0.40234-1.8359-2.5469-2.4102-4.3398-2.3242-62.621 2.9688-82.637-27.609-84.758-40.23-0.3125-1.8594-0.80859-3.1914 0.082032-3.9297 1.0938-0.91016 4.5117-1.7852 5.1133-1.8984 47.52-9.0469 86.738-15.961 116.58-20.555 6.4219-0.98828 12.316 3.4648 14.914 11.129 10.164 29.973 34.395 102.96 35.48 128.8 0.14062 3.3594-0.86719 8.6094-1.9492 13.23-0.46875 2.0117-73.809 105.86-74.051 106.21-6.1016 10.105-6.3555 22.859-6.5781 34.113-0.1875 9.8281-0.37109 19.035-4.3438 24.574-5.3711 7.4883-11.82 10.051-14.344 10.801l-1.3555 0.19922zm-26.586-214.36c-14.398 0-25.258-13.023-25.258-30.289v-112.3c0-14.59 7.9023-30.289 25.258-30.289 14.398 0 25.258 13.023 25.258 30.289v112.3c-0.003906 16.703-11.336 30.289-25.258 30.289zm62.141-17.277c-16.281 0-30.039-14.559-30.039-31.793v-117.6c0-15.797 9.9883-31.793 29.082-31.793 17.379 0 30.992 13.965 30.992 31.793v117.61c0 17.23-13.754 31.785-30.035 31.785zm111.54-3.6562c-4.5742-3.7031-8.6094-8.2148-10.508-14.66l-1.9883-6.7539 32.91 3.0977 6.2891 21.957c-0.003907-0.003906-18.055 3.3555-26.703-3.6406zm-46.656-6.5c-11.27 0-27.992-13.383-27.992-31.867l-0.003906-123.03c0-17.832 12.352-31.793 28.121-31.793 19.43 0 28.125 15.969 28.125 31.793v75.109l-53.66 10.012s1.0391 42.477 44.664 51.418l6.3047 1.8477-3.7461 5.3984c-5.1875 7.4805-12.324 11.113-21.812 11.113zm35.102-81.031v-63.633c0-17.824 12.355-31.793 28.125-31.793 16.031 0 28.121 13.668 28.121 31.793v53.895l-3.9648 0.66016c-14.004 2.3164-29.723 5.0352-46.711 8.0859z"/>
</svg>
