<?xml version="1.0" encoding="UTF-8"?>
<svg width="752pt" height="752pt" version="1.1" viewBox="0 0 752 752" xmlns="http://www.w3.org/2000/svg">
 <path d="m525.04 249.22c-15.875-4.1406-20.184 7.5898-22.316 14.602l-21.297 111.75c-3.2422-1.4531-6.6445-2.9375-10.117-4.3867l13.438-158.57c0.49609-2.8242 1.2227-21.16-15.523-24.02-12.762-2.1797-20.633 6.3711-22.508 17.109l-19.777 152.06c-2.8633-0.33984-5.5273-0.51172-8.125-0.57812l-13.414-172.33c-0.22656-12.152-5.5508-21.633-19.602-21.633-16.727 0-19.129 16.266-19.027 21.656l4.6445 176.97c-5.1055 1.0938-10.262 2.2891-15.066 3.4414l-34.371-148.01c-3.0781-13.633-11.84-19.266-22.738-17.148-13.586 2.6367-16.527 13.355-15.223 23.438 1.5156 11.707 29.809 188.8 31.211 197.58l-8.4492 4.418-0.73438-0.58594c-0.17188-0.10547-14.902-34.809-20.223-43.371-17.645-29.68-37.551-43.77-67.348-34.781-6.8711 2.0742-3.8555 6-3.8555 6 2.2812 4.75 52.02 117.69 69.719 147.77 8.2344 13.988 38.965 41.172 39.301 41.543 4.3438 6.6484 4.5234 14.883 4.6797 22.164 0.14844 6.6172 1.0625 12.355 3.4258 16.785 3.2812 6.1602 12.027 7.6719 12.027 7.6719h121.7c8.2305 0 10.891-2.6172 12.078-6.4688 0.83203-2.7148 0.60547-23.082 2.3633-26.047 4.5195-7.6289 26.223-67.387 35.875-123.23 2.7812-16.082 7.5195-66.895 21.215-158.05 0.87891-2.8828 4.8555-21.363-11.957-25.75z"/>
</svg>
