<?xml version="1.0" encoding="UTF-8"?>
<svg width="752pt" height="752pt" version="1.1" viewBox="0 0 752 752" xmlns="http://www.w3.org/2000/svg">
 <path d="m481.03 375.33c-1.2188-13.434-12.012-22.465-26.855-22.465-3.1445 0-6.0469 0.50781-8.7852 1.2344l-2.3633 36.09c-0.09375 1.4219-1.3008 2.5039-2.6914 2.4141-1.3867-0.089843-2.4492-1.3242-2.3555-2.7461l2.793-42.637s0.26562-4.3047-1.9688-7.0391c-5.5469-6.7656-15.879-10.996-25.75-10.629-5.0195 0.1875-5.75 5.6055-5.75 5.6055l-2.9609 45.16c-0.09375 1.4219-1.3008 2.5039-2.6914 2.4141-1.3867-0.089844-2.4492-1.3242-2.3555-2.7461l8.2344-186.52c0-12.828-6.9219-26.645-22.125-26.645-13.496 0-22.238 7.4336-24.617 20.938-0.19922 1.1445-8.1016 147.05-10.746 170.87l-22.867-156.12c-5.918-24.086-20.957-24.879-29.391-23.199-8.3164 1.6484-21.879 8.0117-19.238 32.223 4.543 37.828 29.75 213.61 29.75 213.61 0.27344 1.8672-0.98828 3.6094-2.8125 3.8789-1.8242 0.26953-3.543-1.0391-3.8164-2.9023l-8.4258-57.125c-8.0195 6.543-20.629 18.938-22.078 33.133-1.0469 10.211-0.96484 27.207 0.1875 40.414 0.82031 9.3711 19.598 58.984 42.629 96.691 1.6328 3.0039 1.0195 33.164 1.8086 35.68 3.0586 9.6758 16.59 10.238 19.309 10.254l111.11-0.015625c0.62891 0.042969 1.2656 0.0625 1.8984 0.0625 8.7695 0 17.945-4.0078 18.914-13.312 0.48437-4.625 1.0938-34.684 1.7188-36.871 14.398-45.453 13.316-148.34 12.289-159.69z"/>
</svg>
